<?xml version="1.0" encoding="utf-8"?>
<!-- Generator: Adobe Illustrator 25.0.1, SVG Export Plug-In . SVG Version: 6.00 Build 0)  -->
<svg version="1.1" id="Layer_1" xmlns="http://www.w3.org/2000/svg" xmlns:xlink="http://www.w3.org/1999/xlink" x="0px" y="0px"
	 viewBox="0 0 86 86" style="enable-background:new 0 0 86 86;" xml:space="preserve">
<style type="text/css">
	.st0{fill:none;}
	.st1{clip-path:url(#SVGID_2_);}
	.st2{fill:#272A41;}
	.st3{clip-path:url(#SVGID_4_);}
	.st4{clip-path:url(#SVGID_6_);}
	.st5{clip-path:url(#SVGID_8_);}
</style>
<rect x="0.5" y="0.5" class="st0" width="85" height="85"/>
<g>
	<defs>
		<rect id="SVGID_7_" x="0.5" y="17.2" width="85" height="51.5"/>
	</defs>
	<clipPath id="SVGID_2_">
		<use xlink:href="#SVGID_7_"  style="overflow:visible;"/>
	</clipPath>
	<g id="Group_30-2" transform="translate(0 0)" class="st1">
		<path id="Path_43" class="st2" d="M1.9,24.5l-1,2l0.8,0.4l1.1,0.6v-2c0-0.2,0-0.4,0-0.5L1.9,24.5z M85.1,31.7L83,21.6l-4.2-3.2
			h-13L60,19.5h17.2c3.3,0,6,2.7,6,6v6.9L85.1,31.7z"/>
		<path id="Path_44" class="st2" d="M77.2,17.2H8.8c-4.6,0-8.3,3.7-8.3,8.3v34.9c0,1.4,0.4,2.9,1.1,4.1v0.1l0,0
			c1.5,2.5,4.2,4.1,7.1,4.1h68.4c4.6,0,8.3-3.7,8.3-8.3V25.5C85.5,21,81.8,17.3,77.2,17.2 M8.8,19.5h53.3c2.3,0,4.1,1.8,4.1,4.1
			c0,1.2-0.5,2.3-1.4,3.1l-20,17.2c-1.2,1-2.9,1.2-4.3,0.5L2.8,25C3.1,21.9,5.7,19.5,8.8,19.5 M83.2,60.4c0,3.3-2.7,6-6,6H15.4
			c-4.4,0-8-3.6-8-8V34.7c0-1.5,1.2-2.8,2.8-2.8c0.5,0,0.9,0.1,1.3,0.3l29.1,15.5c1.4,0.7,3,0.8,4.4,0.2l38.2-15.5V60.4z"/>
		
			<rect id="Rectangle_83" x="63.3" y="36.8" transform="matrix(0.5726 -0.8199 0.8199 0.5726 -18.0999 76.6145)" class="st2" width="2.3" height="37.8"/>
		
			<rect id="Rectangle_84" x="3.2" y="54.7" transform="matrix(0.82 -0.5723 0.5723 0.82 -27.9915 22.7078)" class="st2" width="37.8" height="2.3"/>
	</g>
</g>
</svg>
