<?xml version="1.0" encoding="utf-8"?>
<!-- Generator: Adobe Illustrator 25.0.1, SVG Export Plug-In . SVG Version: 6.00 Build 0)  -->
<svg version="1.1" id="Layer_1" xmlns="http://www.w3.org/2000/svg" xmlns:xlink="http://www.w3.org/1999/xlink" x="0px" y="0px"
	 viewBox="0 0 86 86" style="enable-background:new 0 0 86 86;" xml:space="preserve">
<style type="text/css">
	.st0{fill:none;}
	.st1{clip-path:url(#SVGID_2_);}
	.st2{fill:#272A41;}
	.st3{clip-path:url(#SVGID_4_);}
	.st4{clip-path:url(#SVGID_6_);}
	.st5{clip-path:url(#SVGID_8_);}
</style>
<rect x="0.5" y="0.5" class="st0" width="85" height="85"/>
<g id="Group_29" transform="translate(0 0)">
	<g>
		<defs>
			<rect id="SVGID_5_" x="18.1" y="0.5" width="49.8" height="85"/>
		</defs>
		<clipPath id="SVGID_2_">
			<use xlink:href="#SVGID_5_"  style="overflow:visible;"/>
		</clipPath>
		<g id="Group_28" transform="translate(0 0)" class="st1">
			<path id="Path_36" class="st2" d="M60.5,0.5H25.5c-1.4,0-2.8,0.4-3.9,1.1h0l0,0C19.4,3,18.1,5.4,18.1,8V78c0,4.1,3.3,7.5,7.5,7.5
				h34.9c4.1,0,7.5-3.3,7.5-7.5V8C67.9,3.8,64.6,0.5,60.5,0.5 M43,82.8c-2.4,0-4.4-2-4.4-4.4s2-4.4,4.4-4.4c2.4,0,4.4,2,4.4,4.4
				c0,0,0,0,0,0C47.4,80.8,45.4,82.8,43,82.8 M65.6,56.4c0,8.3-6.7,15-15,15c0,0,0,0,0,0H23.9c-1.7,0-3.2,1.2-3.6,2.9V17.8
				c0-3.7,3-6.6,6.6-6.6c0,0,0,0,0,0h35c1.9,0,3.5-1.5,3.6-3.4v0.1c0,0,0,0.1,0,0.1L65.6,56.4z"/>
			<path id="Path_37" class="st2" d="M34.8,51.9c-2.4,0-4.4,2-4.4,4.4c0,2.4,2,4.4,4.4,4.4s4.4-2,4.4-4.4l0,0
				C39.1,53.8,37.2,51.9,34.8,51.9"/>
			<path id="Path_38" class="st2" d="M51.3,51.9c-2.4,0-4.4,2-4.4,4.4c0,2.4,2,4.4,4.4,4.4c2.4,0,4.4-2,4.4-4.4l0,0
				C55.6,53.8,53.7,51.9,51.3,51.9"/>
			<path id="Path_39" class="st2" d="M34.8,35c-2.4,0-4.4,2-4.4,4.4c0,2.4,2,4.4,4.4,4.4s4.4-2,4.4-4.4l0,0C39.1,37,37.2,35,34.8,35
				"/>
			<path id="Path_40" class="st2" d="M51.3,35c-2.4,0-4.4,2-4.4,4.4c0,2.4,2,4.4,4.4,4.4c2.4,0,4.4-2,4.4-4.4l0,0
				C55.6,37,53.7,35,51.3,35"/>
			<path id="Path_41" class="st2" d="M34.8,18.5c-2.4,0-4.4,2-4.4,4.4s2,4.4,4.4,4.4c2.4,0,4.4-2,4.4-4.4
				C39.1,20.4,37.2,18.5,34.8,18.5"/>
			<path id="Path_42" class="st2" d="M51.3,18.5c-2.4,0-4.4,2-4.4,4.4s2,4.4,4.4,4.4c2.4,0,4.4-2,4.4-4.4
				C55.6,20.4,53.7,18.5,51.3,18.5"/>
		</g>
	</g>
</g>
</svg>
