<?xml version="1.0" encoding="utf-8"?>
<!-- Generator: Adobe Illustrator 25.0.1, SVG Export Plug-In . SVG Version: 6.00 Build 0)  -->
<svg version="1.1" id="Layer_1" xmlns="http://www.w3.org/2000/svg" xmlns:xlink="http://www.w3.org/1999/xlink" x="0px" y="0px"
	 viewBox="0 0 84.8 85" style="enable-background:new 0 0 84.8 85;" xml:space="preserve">
<style type="text/css">
	.st0{fill:none;}
	.st1{clip-path:url(#SVGID_2_);}
	.st2{fill:#272A41;}
	.st3{clip-path:url(#SVGID_4_);}
	.st4{clip-path:url(#SVGID_6_);}
	.st5{clip-path:url(#SVGID_8_);}
</style>
<rect x="0" y="0" class="st0" width="85" height="85"/>
<g id="Component_14_1" transform="translate(0 2.691)">
	<g>
		<defs>
			<rect id="SVGID_1_" x="0" y="-2.7" width="84.8" height="85"/>
		</defs>
		<clipPath id="SVGID_2_">
			<use xlink:href="#SVGID_1_"  style="overflow:visible;"/>
		</clipPath>
		<g id="Group_26" class="st1">
			<path id="Path_32" class="st2" d="M82.4,68.3L58.9,44.8c-2.1-2.1-2.8-5.2-1.9-8l0,0c0.1-0.3,0.2-0.7,0.4-1l0.1-0.3
				c4.9-15.5-3.8-32-19.2-36.8c-1.7-0.5-3.4-0.9-5.2-1.1C16.9-4.5,2.2,7,0.2,23.1s9.4,30.8,25.5,32.8c6.1,0.8,12.2-0.4,17.6-3.3
				c2.4-1.3,4.5-2.9,6.5-4.7c0.5-0.5,1.4-0.6,2,0c0.3,0.3,0.5,0.7,0.4,1.2c-0.7,5.6-0.3,11.5,3.3,15.7l1.5,1.5c0,0,0.1,0,0.1,0.1
				l13.7,13.7c3.2,3.2,8.4,3.2,11.6,0C85.6,76.7,85.6,71.5,82.4,68.3 M29.4,53.7c-14.9,0-27-12.1-27-27c0-14.9,12.1-27,27-27
				c14.9,0,27,12.1,27,27c0,0,0,0,0,0C56.4,41.6,44.3,53.7,29.4,53.7L29.4,53.7"/>
		</g>
	</g>
</g>
</svg>
