<?xml version="1.0" encoding="utf-8"?>
<!-- Generator: Adobe Illustrator 25.0.1, SVG Export Plug-In . SVG Version: 6.00 Build 0)  -->
<svg version="1.1" id="Layer_1" xmlns="http://www.w3.org/2000/svg" xmlns:xlink="http://www.w3.org/1999/xlink" x="0px" y="0px"
	 viewBox="0 0 84.7 85" style="enable-background:new 0 0 84.7 85;" xml:space="preserve">
<style type="text/css">
	.st0{fill:none;}
	.st1{clip-path:url(#SVGID_2_);}
	.st2{fill:#272A41;}
	.st3{clip-path:url(#SVGID_4_);}
	.st4{clip-path:url(#SVGID_6_);}
	.st5{clip-path:url(#SVGID_8_);}
</style>
<rect x="0" y="0" class="st0" width="85" height="85"/>
<g id="Component_15_1" transform="translate(101.316)">
	<g>
		<defs>
			<rect id="SVGID_3_" x="-101.3" y="0" width="84.7" height="85"/>
		</defs>
		<clipPath id="SVGID_2_">
			<use xlink:href="#SVGID_3_"  style="overflow:visible;"/>
		</clipPath>
		<g id="Group_27" class="st1">
			<path id="Path_34" class="st2" d="M-32.7,75.4c0,5.3-4.3,9.6-9.6,9.6s-9.6-4.3-9.6-9.6s4.3-9.6,9.6-9.6c0,0,0,0,0,0
				C-37,65.9-32.7,70.2-32.7,75.4C-32.7,75.4-32.7,75.4-32.7,75.4"/>
			<path id="Path_35" class="st2" d="M-19.1,10.7h2.5V9.2c0-5.1-4.1-9.2-9.2-9.2c0,0,0,0,0,0h-1.1c-3.8,0-7,2.8-7.5,6.5l-2.1,14.3
				H-97c-1.3,0-2.6,0.6-3.4,1.6c-0.8,1-1.1,2.4-0.8,3.7l4.5,19.4c0.5,2.1,1.4,4.1,2.6,5.9l0,0l0,0c3.2,4.5,8.3,7.1,13.8,7.1h29.7
				c1,0,1.8,0.8,1.8,1.9c0,0.6-0.3,1.2-0.8,1.5c-3.6,2.6-8,4-12.5,4h-26.7c-4.8-0.1-8.9,3.3-9.8,7.9c-0.9,5.2,2.7,10.1,7.9,11
				c5,0.8,9.8-2.5,10.9-7.5c0.3-1.4,0.2-2.8-0.1-4.1c-0.6-2.2,0.7-4.4,2.9-5c0.3-0.1,0.7-0.1,1-0.1H-62c11.8-0.1,21.9-8.7,23.7-20.4
				l6-40.9c0.4-2.6,2.6-4.6,5.3-4.6h0.9c3.8,0,6.9,3.1,6.9,6.9L-19.1,10.7z M-39.6,41.5c-0.4,2.7-2.7,4.7-5.4,4.6h-30.6
				c-6.4,0-12-4.3-13.6-10.5l-1.1-4.5c-0.8-3.3-3.8-5.6-7.3-5.6h-0.1c-0.7,0-1.3-0.6-1.3-1.3s0.6-1.3,1.3-1.3h60.7L-39.6,41.5z"/>
		</g>
	</g>
</g>
</svg>
